<?xml version="1.0" encoding="UTF-8"?>
<svg id="Capa_1" data-name="Capa 1" xmlns="http://www.w3.org/2000/svg" viewBox="0 0 201.14 259.7">
  <defs>
    <style>
      .cls-1 {
        fill: #f2ad49;
      }

      .cls-1, .cls-2, .cls-3, .cls-4, .cls-5, .cls-6, .cls-7, .cls-8, .cls-9, .cls-10 {
        stroke-width: 0px;
      }

      .cls-2 {
        fill: #f08a2e;
      }

      .cls-3 {
        fill: #f6bc65;
      }

      .cls-4 {
        fill: #fff;
      }

      .cls-5 {
        fill: #599832;
      }

      .cls-6 {
        fill: #15110d;
      }

      .cls-7 {
        fill: #fff9f0;
      }

      .cls-8 {
        fill: #155796;
      }

      .cls-9 {
        fill: #f9e9ae;
      }

      .cls-10 {
        fill: #004172;
      }
    </style>
  </defs>
  <g>
    <path class="cls-6" d="m133.89,225.87c-.58,3.39-1.05,6.77-1.77,10.09-.79,3.62.04,7.07.56,10.59.28,1.92.68,3.95.36,5.82-.74,4.24-4.19,7.27-8.65,7.32-2.29.02-4.56.09-6.79-.74-3.78-1.41-5.68-4.03-6.09-8.05-.32-3.17.15-6.21.62-9.29.17-1.13.22-2.29.31-3.43.17-2.29.33-4.57.51-7.05-.91.22-1.68.41-2.44.59-3.83.88-7.71,1.18-11.65,1.13-4.7-.07-9.41-.04-14.12.04-3.82.07-7.65.07-11.44.48-3,.32-5.92,1.28-8.9,1.84-1.76.33-3,1.18-4.14,2.55-1.79,2.15-3.93,3.95-6.14,5.68-2.17,1.7-4.41,3.28-6.92,4.37-4.53,1.97-8.87,1.4-12.88-1.55-.41-.3-.93-.46-1.34-.76-1.18-.88-2.23-1.9-2.65-3.42-2.06.44-3.72-.41-5.33-1.42-2.28-1.43-3.07-3.66-2.31-6.27.81-2.78,2.74-4.59,5.25-5.68,3.32-1.45,6.7-2.79,10.16-3.86,3.38-1.05,6.9-1.68,10.34-2.53.5-.12,1.03-.4,1.38-.76,1.39-1.49,2.71-3.04,4.05-4.57.55-.63,1.21-1.2,1.61-1.92.51-.91.89-1.92,1.18-2.92.32-1.11.47-2.28.71-3.47-1.59.25-3.11.5-4.64.74-2.87.47-5.77.84-8.61,1.45-1.47.32-2.84,1.1-4.26,1.64-3.94,1.5-7.96,2.69-12.21,2.58-3.62-.09-6.64-1.41-8.39-4.85-1.32-2.61-.45-5.7,1.87-7.35,2.38-1.69,5.09-2.64,7.83-3.55,3.99-1.32,8.05-2.41,12.2-3.09,1.98-.32,3.97-.56,5.96-.82,2.66-.35,4.95-1.52,7.01-3.18,1.62-1.31,3.18-2.69,4.75-4.06.11-.1.18-.28.2-.44.3-2.35.62-4.7.88-7.05.09-.75.07-1.52.05-2.27,0-.2-.17-.42-.31-.59-1.31-1.63-2.37-3.43-2.56-5.52-.34-3.74-.7-7.51.74-11.13.27-.67.84-1.22,1.26-1.84.12-.17.22-.37.26-.58.24-1.2-.12-2.34-.33-3.5-.6-3.3-1.23-6.59-1.69-9.91-.38-2.74-.64-5.5-.74-8.26-.11-2.76.14-5.53.8-8.22.14-.56-.04-.7-.47-.91-1.89-.9-3.69-1.96-5.17-3.47-1.57-1.61-1.94-3.52-.18-5.09-1.37-.59-2.72-1.28-4.13-1.75-1.74-.58-3.55-.91-5.3-1.45-4.98-1.54-8.5-5.1-9.19-10.49-.42-3.36.63-6.21,2.98-8.63,1.62-1.67,3.11-3.47,4.83-5.03,1.84-1.66,2.64-3.71,2.85-6.04.25-2.68.48-5.37.46-8.05-.03-5.68,1.75-10.77,4.66-15.54.18-.29.2-.68.32-1.01.88-2.48,1.7-4.99,2.69-7.43.41-1.02.52-1.95.34-3-.46-2.65-.32-5.32.07-7.96.24-1.62.48-3.24.91-4.81.62-2.23,1.48-4.39,2.91-6.24,1.98-2.56,4.41-4.48,7.75-4.98,5.9-.89,12.44,1.47,15.16,7.06.5,1.03.73,2.18,1.11,3.34,6.26-1.43,12.7-.87,19.21.17.87-2.64,2.46-4.93,4.16-7.18,1.87-2.49,4.41-3.79,7.39-4.23,7.07-1.04,13.25.96,18.51,5.74,2.58,2.35,4.85,5.01,6.5,8.08,2.89,5.37,5.77,10.78,6.79,16.9.42,2.51.62,5.06.85,7.6.11,1.2.07,2.41.12,3.61,0,.22.08.48.22.64,2.49,2.77,4,6.13,5.64,9.41,1.03,2.07,2.02,4.17,3.2,6.15.54.91,1.38,1.74,2.27,2.31,6.39,4.1,12.49,8.56,17.84,13.99,2.41,2.44,4.92,4.77,7.34,7.2,3.45,3.47,6.17,7.47,8.51,11.76.98,1.8,2.23,3.46,3.3,5.22,2.17,3.58,3.63,7.45,4.75,11.47.87,3.12,1.93,6.19,2.63,9.35.7,3.19,1.26,6.45,1.51,9.71.32,4.01.28,8.05.34,12.08.03,1.82,0,3.64-.14,5.45-.32,4.11-1.28,8.1-2.59,12-.3.91-.54,1.85-.94,2.72-1.52,3.31-3.57,6.27-5.97,9-3.2,3.64-7.01,6.55-10.9,9.39-5.85,4.27-12.26,7.45-18.93,10.15-1.44.58-2.95.99-4.39,1.58-1.49.61-2.92,1.35-4.4,1.99-5.17,2.24-10.56,3.85-15.98,5.34-1,.27-1.98.6-3,.92Zm-114.29-19.33c-.04.07-.08.13-.13.2.07.69.14,1.38.21,2.06.89-1.34,1.88-2.31,3.34-2.76.23.04.46.08.9.16-.39.29-.61.45-.83.61-1.16.81-2.07,1.8-2.38,3.22-.04.2.12.45.19.68,1.05,1.71,2.69,2.48,4.61,2.95-.28-1.71.14-3.15,1.26-4.34.29-.3.73-.46,1.1-.68.05.07.11.14.16.21-.13.21-.25.43-.39.64-.65,1.03-1.14,2.12-1.1,3.37.04,1,.17,1.1,1.16,1.1,3.56,0,6.96-.83,10.29-2,1.96-.69,3.86-1.58,5.86-2.12,2.13-.58,4.33-.88,6.51-1.24,2.36-.39,4.73-.71,7.22-1.08.47-5.92.94-11.88,1.41-17.96-.62.58-1.07,1-1.53,1.42-.89.71-1.78,1.44-2.68,2.14-2.1,1.64-4.4,2.89-7.05,3.34-2.13.36-4.29.52-6.41.87-4.02.66-7.96,1.67-11.83,2.96-2.89.96-5.77,1.94-8.23,3.82-.82.62-1.54,1.33-1.69,2.43h.03Zm14.8-99.39c.02.13.02.26.06.38.87,2.85,2.72,4.9,5.23,6.43,1.04.63,1.98.21,2.08-1,.03-.31.04-.62.06-.93.09-1.18.09-1.19-.98-1.55-.37-.12-.77-.17-1.11-.35-1.72-.92-3.39-1.93-4.76-3.36-.14-.14-.37-.19-.56-.28,0,.22-.01.45-.02.67Zm11.96,116.88c-.23,0-.47-.05-.69,0-1.44.32-2.88.66-4.31.99-1.2.34-2.42.6-3.58,1.03-2.91,1.07-5.81,2.18-8.69,3.35-.97.4-1.91.95-2.76,1.58-1.43,1.06-2.41,2.47-2.67,4.14,1.02-.25,2.03-.51,3.05-.73.11-.02.27.21.41.32-.69.35-1.43.63-2.07,1.05-1.79,1.18-1.72,1.07-.78,2.74.04.07.09.13.13.19.96.7,1.92,1.4,2.9,2.11.47-.74.82-1.28,1.17-1.82.58-.36.8-1.35,1.81-1.07.47-1.81,1.5-3.32,2.85-4.75,2.07-2.21,4.4-3.93,7.08-5.32,2.14-1.11,4.11-2.54,6.15-3.83,0-.03.01-.07.02-.1,0,.04,0,.07,0,.11Zm66.15,6.04c.57.03.41-.4.44-.71.18-2.2-.21-4.35-.48-6.52-.13-1.03-.29-2.05-.44-3.07-.16-1.87-.31-3.75-.47-5.62-.31-3.59-.63-7.18-.96-10.76-.07-.77-.19-1.54-.29-2.36-.4.04-.75.04-1.07.12-1.96.49-3.93.94-5.87,1.5-6.41,1.86-12.68,3.98-17.91,8.41-1.94,1.64-4.19,2.92-6.3,4.36-.99.45-1.96.98-2.99,1.31-.5.16-.8.39-1.06.8-1.06,1.71-2.07,3.45-3.21,5.11-.73,1.07-1.7,1.97-2.47,3.01-1.93,2.63-3.82,5.29-5.72,7.94-.12.17-.19.37-.38.73.51-.1.81-.15,1.1-.22,3.17-.84,6.32-1.78,9.63-1.96,2.19-.11,4.38-.23,6.57-.26,4.62-.06,9.24-.06,13.86-.09.35-.01.7-.03,1.05-.04.05,0,.1,0,.16,0,1.27-.01,2.55.02,3.82-.04,2.42-.12,4.85-.2,7.25-.49,1.93-.23,3.82-.75,5.73-1.14Zm2.78-146.12c.28-2.3.19-4.54-.4-6.82-.65-2.49-1.32-4.93-2.65-7.15-2.08-3.48-4.58-6.58-7.84-9.06-1.92-1.45-3.8-2.94-5.98-4-3.5-1.72-7.24-2.73-10.97-3.79-3.84-1.09-7.75-1.66-11.74-1.51-3.47.13-6.92.47-10.32,1.26-2.86.67-5.63,1.53-8.2,2.99-2.33,1.04-4.35,2.47-5.76,4.65-.65,1.01-1.41,1.95-2.01,2.99-.79,1.37-1.46,2.8-2.21,4.25.2.03.28.05.35.05,3.13-.15,6.23,1.92,7.12,4.74.37,1.16.64,2.41.09,3.5-1.2,2.41-4.26,3.78-6.88,3.2-.89-.2-1.75-.59-2.54-.86-.2,2.64-.3,5.36-.62,8.05-.25,2.11-.86,4.13-2.53,5.67-.88.81-1.72,1.68-2.55,2.55-.83.88-1.63,1.79-2.51,2.76.25.02.37.05.49.04,4.3-.16,8.56.16,12.77,1.1,1.01.23,2.06.41,2.66,1.42.16.81.39,1.61.48,2.43.13,1.19-.41,2.22-.95,3.23-.44.4-.86.83-1.33,1.19-2.14,1.61-4.56,2.67-7.06,3.57-1.19.42-1.19.41-1.17,1.67-.33.63-.09,1.19.41,1.51.6.38,1.29.76,1.98.84,2.28.29,4.58.4,6.85.68,1.98.24,3.96.58,5.92.95,1.09.21,2.15.58,3.23.85,2.23.55,4.48.82,6.74.29,3.24-.76,6.15-2.21,8.77-4.26.76-.59,1.5-1.22,2.28-1.79.23-.17.55-.24.86-.37.22.95-.33,1.38-.83,1.78-1.92,1.58-3.95,2.99-6.19,4.09-3.6,1.77-7.31,2.47-11.27,1.46-2.15-.55-4.31-1.11-6.51-1.44-2.96-.43-5.96-.64-8.95-.95-1.33-.14-2.63-.39-3.62-1.27-.23.22-.44.42-.64.62,3.94.87,7.66,2.42,11.42,3.84,1.81.68,3.6,1.51,5.47,1.97,4.76,1.16,9.61,1.73,14.52,1.27,1.81-.17,3.62-.44,5.41-.8,1.55-.31,3.04-.85,4.58-1.22,5.1-1.22,9.86-3.14,13.85-6.65,2.21-1.95,4.36-3.96,6.54-5.94.28-.26.61-.49.84-.79,1.34-1.73,2.74-3.43,3.97-5.23,2.12-3.11,4.01-6.37,4.98-10.04.65-2.47,1.1-5,1.64-7.5Zm-3.59,37.41h.01c.14-.07.3-.1.41-.2,2.47-2,5.18-3.67,7.5-5.89,3.39-3.26,6.44-6.78,8.96-10.76,1.23-1.94,2.52-3.84,3.8-5.74.58-.87,1.35-1.64,1.77-2.57,1.01-2.26,1.81-4.61,2.8-6.87,1.83-4.19,3.35-8.48,4.3-12.96.38-1.78.64-3.59.93-5.39.14-.84.25-1.69.29-2.54.03-.62-.1-1.25-.1-1.88.02-3.17-.15-6.33-.84-9.43-.6-2.72-.79-5.58-2.32-8.05-.25-.4-.44-.83-.64-1.25-2.3-4.73-4.59-9.46-8.24-13.35-.82-.87-1.53-1.86-2.44-2.62-1.94-1.61-4.16-2.76-6.55-3.57-1.3-.44-2.6-1.04-3.94-1.19-1.88-.2-3.81-.2-5.69-.01-2.08.21-4.06.91-5.82,2.11-.32.22-.75.36-.93.66-1.82,2.9-4.03,5.57-5.2,8.84-1.44-.21-2.88-.47-4.32-.62-3.53-.37-7.08-.53-10.63-.34-.2.01-.4.09-.6.13-.92.1-1.84.25-2.76.29-.7.03-1.41-.09-2.12-.15-.15-.47-.3-.94-.46-1.4-1.01-3.02-2.82-5.42-5.64-6.93-3.64-1.96-7.49-2.31-11.43-1.03-1.25.41-2.51.9-3.39,1.98-.62.8-1.34,1.54-1.86,2.4-1.73,2.89-2.77,6.02-3.17,9.38-.35,2.92-.62,5.83-.11,8.73.22,1.28-.05,2.36-.59,3.45-.12.25-.19.54-.28.81-.51,1.26-1.02,2.53-1.58,3.9,1.17-1.05,2.13-2.1,3.28-2.9,2.38-1.67,4.99-2.9,7.78-3.73,3.37-1.01,6.81-1.63,10.32-1.95,3.67-.33,7.35-.49,10.93.3,4.14.91,8.22,2.12,12.25,3.41,5.29,1.69,9.6,5.03,13.38,8.97,1.77,1.84,3.19,4.06,4.56,6.24,1.9,3.01,2.72,6.46,3.2,9.93.4,2.87-.14,5.77-.79,8.61-1.06,4.63-2.82,8.95-5.46,12.93-1.78,2.69-3.56,5.36-5.91,7.58-1.67,1.58-3.41,3.09-5.15,4.59-1.28,1.1-2.54,2.27-3.96,3.17-3.67,2.32-7.64,3.91-11.91,4.83-3.47.75-6.87,1.74-10.44,2.03-3.54.29-7.04-.04-10.52-.6-2.92-.47-5.77-1.26-8.48-2.45-.77-.34-1.38-.18-1.92.41-.6.92-.18,2.87.72,3.54,2.76,2.06,5.87,3.34,9.14,4.35,4.07,1.25,8.16,2.16,12.44,2.04,3.82-.1,7.64-.27,11.46-.22,3.35.04,6.55-.79,9.79-1.4,4.14-.78,7.86-2.6,11.51-4.6,1.46-.8,2.83-1.76,4.24-2.65.14-.12.28-.24.42-.36Zm38,58.76c-.09.31-.19.62-.28.93-.46.49-.97.96-1.38,1.49-2.95,3.75-5.16,7.92-6.59,12.46-1.12,3.55-2.04,7.16-2.96,10.77-1.25,4.89-2.42,9.81-3.59,14.72-.31,1.31-.51,2.64-.78,4.07,1.29-.36,2.44-.66,3.58-1.02,3.95-1.25,7.92-2.43,11.82-3.81,2.6-.92,5.08-2.16,7.64-3.22,3.37-1.4,6.8-2.67,10.13-4.16,5.18-2.32,10.01-5.25,14.55-8.68,4.44-3.36,8.61-6.99,11.75-11.65,1.02-1.51,1.93-3.09,2.78-4.7.41-.77.57-1.67.84-2.52,1.89-5.86,3.27-11.79,2.87-18.04-.2-3.18-.02-6.39-.22-9.58-.18-2.81-.41-5.65-1.03-8.38-1.05-4.61-2.39-9.16-3.67-13.72-1.03-3.66-2.55-7.12-4.55-10.36-1.67-2.71-3.33-5.42-5-8.12-1.62-2.63-3.43-5.14-5.61-7.33-3.29-3.32-6.69-6.52-10.02-9.8-4.29-4.22-9.1-7.76-14.19-10.92-2.39-1.48-4.25-3.33-5.41-5.89-.73-1.61-1.5-3.21-2.32-4.78-1.07-2.06-2.18-4.09-3.32-6.11-.3-.54-.74-1-1.22-1.63-.09.41-.14.61-.18.81-.55,2.89-.95,5.82-1.69,8.65-1.64,6.29-4.3,12.2-7.31,17.94-.81,1.54-1.78,3-2.67,4.5-.1.12-.22.22-.3.35-1.35,2.01-2.69,4.03-4.04,6.04-1.91,2.1-3.77,4.26-5.76,6.29-.96.98-2.18,1.69-3.23,2.59-1.24,1.07-2.35,2.29-3.61,3.32-4.22,3.44-8.94,6.08-14.02,7.96-5.11,1.9-10.47,2.82-15.94,2.96-3.82.1-7.64.13-11.46.15-1.15,0-2.32.03-3.44-.18-2.57-.5-5.11-1.12-7.65-1.76-1.35-.34-2.67-.79-4.07-1.22,0,.66.06,1.27,0,1.86-.41,3.52-.55,7.04-.14,10.56.43,3.59.99,7.16,1.45,10.75.44,3.41.87,6.81,1.19,10.23.22,2.39.26,4.8.37,7.21,0,.16-.03.31-.02.47.06,2.04.18,4.08.17,6.11,0,2.04-.07,4.08-.24,6.11-.3,3.8-.7,7.59-1.04,11.38-.12,1.35-.17,2.71-.3,4.06-.13,1.37-.34,2.73-.48,4.1-.23,2.36-.4,4.73-.63,7.09-.34,3.49-1.36,6.66-3.81,9.36-1.82,2.01-3.41,4.24-5.68,5.81-1.54,1.07-3.1,2.12-4.65,3.18-.53.32-1.05.68-1.6.97-2.95,1.55-5.83,3.15-8.35,5.45-1.52,1.38-2.48,2.9-2.95,4.8-.46,1.83-.43,2.36-.01,3.37.07-.16.12-.31.18-.45.76-1.54,1.88-2.69,3.62-3.06.17-.04.38.17.58.26-1.3.62-2.3,1.56-2.98,2.84-.92,1.73-.85,2.18.62,3.42.16.13.32.26.48.39,1.11,1.29,2.62,1.81,4.19,2.35.48-2.05,1.3-3.81,2.79-5.17.34-.31.91-.35,1.37-.52-.3.43-.64.83-.88,1.29-.7,1.33-1.38,2.68-2.03,4.03-.15.32-.18.69.34.77,2.03.3,4.09.45,6.03-.35,2.89-1.2,5.66-2.7,8.03-4.76,2.18-1.9,4.38-3.85,6.22-6.07,3.37-4.08,6.48-8.38,9.7-12.59,3.51-4.59,6.28-9.62,8.75-14.82,2.06-4.33,3.87-8.79,5.86-13.16,1.46-3.21,3-6.37,4.53-9.55.71-1.47,1.49-2.91,2.24-4.37.15.15.3.3.44.45-.11.48-.17.98-.35,1.43-.43,1.06-.92,2.1-1.4,3.15-.67,1.46-1.35,2.91-2.01,4.32,1.63.51,3.2.96,4.74,1.49,4.93,1.7,9.51,4.02,13.4,7.57.15.13.42.24.6.21,1.23-.21,2.45-.46,3.75-.71-.13-1.2-.24-2.44-.39-3.68-.27-2.27-.48-4.56-.88-6.82-.46-2.58-1.11-5.13-1.68-7.69l.32-.84c.23.18.58.31.66.54.3.83.57,1.67.74,2.53.52,2.71,1.04,5.41,1.46,8.14.3,1.9.45,3.83.66,5.75.26,2.49.52,4.99.77,7.48.24,2.44.45,4.89.68,7.33.25,2.65.52,5.3.74,7.96.16,1.9.25,3.81.38,5.71.09,1.4.27,2.81.24,4.21-.04,2.5-.16,5.01-.33,7.5-.13,1.87-.4,3.73-.59,5.59-.18,1.79-.43,3.57-.45,5.36-.02,1.98.23,3.96,1.18,5.76.49.93,1.19,1.66,2.25,2.11,0-.4-.04-.69,0-.97.17-.99.3-1.99.6-2.95.11-.35.62-.57.95-.84-.04.41-.07.82-.12,1.23-.1.85-.28,1.69-.31,2.55-.05,1.41.13,1.6,1.5,2.04,1,.27,2,.54,3.01.8,1.42-.07,2.85-.07,4.25-.23,1.07-.13,1.12-.28,1.12-1.4,0-1.41-.02-2.83.01-4.24,0-.26.24-.52.37-.78.19.24.38.48.56.73.03.04.01.1.01.15.1,1.51.2,3.01.31,4.56,2.49-1.33,3.83-3.43,3.73-6.19-.08-2.38-.48-4.77-.87-7.13-.43-2.61-.52-5.21-.14-7.81.43-2.88,1.01-5.75,1.5-8.62.73-4.26,1.49-8.51,2.64-12.69,1.21-4.41,2.1-8.91,3.2-13.35,1.4-5.64,3.15-11.16,6.3-16.11,1.05-1.65,2.28-3.18,3.48-4.73.38-.49.92-.88,1.64-.7Zm-44.69,20.87c-5.39-4.54-11.5-7.14-18.09-8.66-2.04,4.78-4.04,9.48-6.04,14.16.08.07.1.1.12.1,2.54.28,5.07.56,7.61.82.13.01.29-.1.42-.18,4.13-2.52,8.63-4.16,13.27-5.45.89-.25,1.77-.52,2.7-.79Zm-24.68,6.69c-1.31,2.56-2.63,5.16-3.98,7.79,1.64-.58,10.62-6.41,11.01-7.11-2.31-.22-4.64-.44-7.04-.67Zm-20.91-47.01c-.83,1.41-1.32,2.92-1.35,4.51-.05,2.29-.11,4.6.08,6.88.13,1.5.81,2.91,1.74,4.14.07-.01.15-.03.22-.04-.23-5.16-.46-10.32-.69-15.49Zm-19.98-60.45c1.13,1.43,10.04,2,10.86.74-1.56-1.48-9.49-2.05-10.86-.74Zm10.02-28.66c-.01-.66-.5-1.18-1.11-1.16-.7.01-1.29.69-1.24,1.43.04.65.55,1.14,1.16,1.12.67-.02,1.21-.65,1.19-1.39Zm-3.96,1.67c-.07,1.31-.13,2.52-.19,3.67.47.29.86.52,1.19.72-.33-1.43-.65-2.85-1.01-4.39Zm-17.08,167.86c.66-.05,1.09-.08,1.51-.12v-2.22c-.54.83-.95,1.47-1.51,2.33Z"/>
    <path class="cls-9" d="m113.65,226.25c-.12-1.9-.22-3.81-.38-5.71-.22-2.65-.49-5.3-.74-7.96-.23-2.44-.44-4.89-.68-7.33-.24-2.5-.5-4.99-.77-7.48-.2-1.92-.36-3.84-.66-5.75-.43-2.72-.94-5.43-1.46-8.14-.17-.86-.44-1.71-.74-2.53-.08-.23-.43-.36-.66-.54-.11.28-.21.56-.32.84-.19.33-.48.65-.54,1.01-.41,2.49-.77,4.99-1.15,7.48-.14.91-.32,1.82-.51,2.84-1.19-.58-2.28-1.06-3.32-1.63-2.55-1.39-5.19-2.51-8.06-3.03-.13-.02-.31-.13-.35-.24-.44-1.24-.86-2.49-1.27-3.75-.21-.65-.4-1.31-.6-1.97-.15-.15-.3-.3-.44-.45-.23-.27-.43-.68-.87-.31-.47.4-.99.79-1.33,1.29-.8,1.19-1.52,2.43-2.23,3.67-1.85,3.24-3.69,6.47-5.49,9.74-1.81,3.28-3.59,6.59-5.34,9.9-1.09,2.06-2.16,4.14-3.14,6.26-1.45,3.16-2.91,6.32-4.88,9.19-1.3,1.91-2.73,3.74-4.17,5.55-1.8,2.25-3.62,4.49-5.52,6.65-1.72,1.96-3.65,3.73-5.87,5.14-1.97,1.25-4,2.42-6.03,3.57-1.41.8-2.87,1.52-4.31,2.28.15-.79.51-1.45.74-2.15.14-.42.53-1.04-.35-1.21-.46.17-1.03.21-1.37.52-1.49,1.36-2.31,3.12-2.79,5.17-1.57-.53-3.09-1.05-4.19-2.35-.17-2.08.23-3.98,1.7-5.58.21-.23.13-.71.19-1.07-.19-.09-.41-.3-.58-.26-1.74.38-2.85,1.52-3.62,3.06-.07.14-.12.28-.18.45-.42-1.01-.45-1.54.01-3.37.48-1.9,1.44-3.42,2.95-4.8,2.51-2.29,5.39-3.9,8.35-5.45.55-.29,1.07-.64,1.6-.97.32.11.64.33.95.3,1.58-.15,3.17-.26,4.72-.57,1.42-.29,2.76-.86,4.02-1.67,1.27-.81,2.46-1.64,3.34-2.86,1.15-1.59,2.27-3.21,3.37-4.83.57-.83,1.16-1.67,1.58-2.58.39-.83.56-1.77.83-2.66.92-2.95,1.86-5.89,2.76-8.85.38-1.26.77-2.53,1.01-3.82.41-2.14.69-4.31,1.08-6.46.21-1.17.53-2.32.85-3.46.56-1.97.35-3.98.29-5.98-.03-.94-.1-1.92-.38-2.82-.93-3.04-2.3-5.89-4.31-8.36-.97-1.19-1.92-2.46-3.44-3.06-.12-2.4-.15-4.81-.37-7.21-.32-3.42-.76-6.83-1.19-10.23-.46-3.59-1.03-7.16-1.45-10.75-.42-3.52-.28-7.04.14-10.56.07-.59,0-1.2,0-1.86,1.4.42,2.72.88,4.07,1.22,2.54.63,5.09,1.25,7.65,1.76,1.12.22,2.29.19,3.44.18,3.82-.02,7.64-.05,11.46-.15,5.47-.14,10.82-1.06,15.94-2.96,5.08-1.89,9.8-4.53,14.02-7.96,1.27-1.03,2.38-2.25,3.61-3.32,1.04-.9,2.27-1.61,3.23-2.59,1.99-2.03,3.85-4.18,5.76-6.29,2.61-.04,5.23-.01,7.84-.14,2.39-.12,4.78-.35,7.15-.64,3.46-.41,6.91-.91,10.36-1.36.15-.02.31.03.45.08,1.13.39,1.56.95,1.34,2.29-.31,1.89-.69,3.78-1.27,5.6-.47,1.48-1.15,2.93-1.96,4.27-1.55,2.57-3.24,5.05-4.88,7.55-.93,1.41-1.9,2.79-2.84,4.18-.39.57-.06,1.03.35,1.35.29.23.71.36,1.09.4,2.51.26,4.99.15,7.44-.49.32-.08.7-.17.99-.08.25.08.62.46.59.64-.12.57-.26,1.26-.65,1.62-1.38,1.28-2.84,2.49-4.32,3.65-1.95,1.53-3.96,3.01-5.95,4.49-1.4,1.04-2.88,2-4.24,3.09-2.86,2.31-5.41,4.96-7.71,7.83-1.75,2.18-3.32,4.49-4.95,6.76-.95,1.32-1.9,2.64-2.76,4.02-1.11,1.79-1.52,3.79-1.24,5.86.27,2.02,1.22,3.61,3.35,4.3.6.19,1.25.62,1.61,1.13,1.2,1.67,1.66,3.61,1.75,5.65.15,3.47-.96,6.73-1.7,10.05-.61,2.71-1.15,5.44-1.74,8.16-.43,1.98-.67,4.03-1.38,5.91-1.48,3.98-3.21,7.86-4.84,11.78-.19.46-.46.88-.67,1.34-.68,1.45-1.25,2.96-2.04,4.34-.83,1.45-1.87,2.78-2.81,4.16Zm-46.22-79.35l-.2-1.31c-.07,0-.15,0-.22,0-.08.31-.25.63-.23.94.09,1.45.04,2.93.37,4.33,1.48,6.21,4.42,11.65,8.84,16.28,3.63,3.81,8.2,6.12,12.97,8.13.31.13.67.15,1.15.26-.15-.28-.21-.41-.28-.54.7-.06.92-.45.5-.99-.51-.66-1-1.36-1.62-1.9-2.29-2-4.6-3.97-6.95-5.9-2.54-2.07-4.81-4.4-6.81-6.97-2.18-2.81-3.87-5.93-5.06-9.3-.41-1.18-.9-2.33-1.38-3.48-.07-.17-.35-.36-.52-.35-.15.01-.3.28-.42.46-.07.1-.09.24-.13.36Z"/>
    <path class="cls-3" d="m113.65,226.25c.95-1.38,1.98-2.71,2.81-4.16.79-1.38,1.36-2.89,2.04-4.34.21-.45.48-.88.67-1.34,1.64-3.92,3.36-7.81,4.84-11.78.7-1.88.95-3.93,1.38-5.91.59-2.72,1.14-5.45,1.74-8.16.75-3.32,1.85-6.57,1.7-10.05-.09-2.04-.55-3.98-1.75-5.65-.37-.51-1.01-.93-1.61-1.13-2.12-.69-3.07-2.27-3.35-4.3-.28-2.07.13-4.07,1.24-5.86.86-1.38,1.81-2.7,2.76-4.02,1.63-2.27,3.21-4.58,4.95-6.76,2.3-2.86,4.84-5.52,7.71-7.83,1.36-1.1,2.83-2.05,4.24-3.09,1.99-1.48,3.99-2.95,5.95-4.49,1.48-1.16,2.94-2.37,4.32-3.65.39-.36.53-1.05.65-1.62.04-.17-.33-.56-.59-.64-.29-.09-.67,0-.99.08-2.45.64-4.94.75-7.44.49-.38-.04-.8-.17-1.09-.4-.41-.32-.74-.78-.35-1.35.94-1.4,1.91-2.78,2.84-4.18,1.65-2.5,3.34-4.99,4.88-7.55.8-1.34,1.49-2.79,1.96-4.27.58-1.82.96-3.71,1.27-5.6.22-1.34-.21-1.9-1.34-2.29-.14-.05-.31-.1-.45-.08-3.45.45-6.9.95-10.36,1.36-2.38.28-4.76.52-7.15.64-2.61.13-5.23.1-7.84.14,1.35-2.01,2.69-4.03,4.04-6.04.09-.13.2-.23.3-.35.18.09.37.28.53.26.69-.1,1.42-.15,2.06-.41,2.81-1.1,5.8-1.21,8.73-1.6,1.65-.22,3.33-.24,4.96-.55,2.07-.4,4.15-.42,6.23-.38.27,0,.56.12.81.24,2.68,1.33,5.33,2.71,7.81,4.43,4.01,2.78,7.15,6.31,9.32,10.66.99,1.98,1.86,4.02,2.72,6.07.55,1.32,1.02,2.69,1.46,4.05.61,1.91,1.18,3.83,1.73,5.75.7,2.45,1.47,4.89,2.03,7.37.75,3.32,1.41,6.67,1.95,10.04.39,2.41.59,4.86.73,7.29.09,1.64-.05,3.29-.12,4.93-.09,1.93-.2,3.85-.34,5.78-.03.4-.13.87-.37,1.17-1.92,2.37-3.84,4.73-5.84,7.03-.99,1.14-2.12,2.15-3.22,3.18-1.23,1.16-2.43,2.37-3.77,3.4-2.6,2.01-5.21,4-7.94,5.82-2.33,1.54-4.81,2.86-7.25,4.22-1.32.73-2.7,1.35-4.07,1.97-.42.19-.9.23-1.52.38.08-1.21.13-2.19.22-3.17.13-1.42.28-2.84.43-4.27.16-1.55.33-3.1.5-4.65.09-.31.19-.62.28-.93-.08-.15-.15-.42-.24-.42-1.75-.12-3.46.11-5.05.83-2.23,1-3.77,2.85-5.2,4.73-1,1.31-1.75,2.81-2.69,4.16-1.71,2.45-2.73,5.24-3.85,7.96-1.26,3.06-1.95,6.3-2.59,9.54-.56,2.81-1.24,5.59-1.85,8.38-.49,2.26-1.03,4.51-1.43,6.79-.3,1.71-.43,3.46-.62,5.19-.17,1.47-.33,2.95-.48,4.42-.13,1.22-.23,2.44-.35,3.65-.19,1.99-.49,3.98-.57,5.98-.13,3.46.16,6.94-.97,10.3-.59,1.75-1.07,3.54-1.61,5.31-.18.58-.4,1.14-.61,1.7-1-.27-2-.54-3.01-.8-.02-.93-.08-1.85-.05-2.78.03-.8.2-1.59.22-2.38,0-.35-.19-.7-.3-1.06-.31.14-.63.27-.94.41-.33.28-.84.5-.95.84-.29.95-.43,1.96-.6,2.95-.05.28,0,.57,0,.97-1.06-.46-1.76-1.18-2.25-2.11-.95-1.8-1.19-3.78-1.18-5.76.02-1.79.27-3.58.45-5.36.18-1.86.46-3.72.59-5.59.17-2.5.29-5,.33-7.5.02-1.4-.16-2.81-.24-4.21Z"/>
    <path class="cls-2" d="m149.42,181.05c-.17,1.55-.33,3.1-.5,4.65-.15,1.42-.3,2.84-.43,4.27-.09.98-.14,1.96-.22,3.17.62-.15,1.11-.19,1.52-.38,1.37-.62,2.75-1.24,4.07-1.97,2.45-1.35,4.93-2.67,7.25-4.22,2.73-1.81,5.35-3.81,7.94-5.82,1.33-1.03,2.54-2.24,3.77-3.4,1.1-1.03,2.23-2.05,3.22-3.18,2-2.3,3.92-4.66,5.84-7.03.24-.3.34-.77.37-1.17.14-1.92.25-3.85.34-5.78.07-1.64.22-3.3.12-4.93-.14-2.44-.35-4.88-.73-7.29-.54-3.36-1.2-6.71-1.95-10.04-.56-2.48-1.33-4.92-2.03-7.37-.55-1.92-1.12-3.84-1.73-5.75-.44-1.37-.91-2.73-1.46-4.05-.86-2.04-1.73-4.09-2.72-6.07-2.18-4.35-5.31-7.88-9.32-10.66-2.48-1.71-5.12-3.1-7.81-4.43-.25-.12-.54-.24-.81-.24-2.09-.03-4.16-.01-6.23.38-1.63.31-3.31.34-4.96.55-2.94.38-5.92.5-8.73,1.6-.64.25-1.37.31-2.06.41-.16.02-.35-.17-.53-.26.9-1.5,1.87-2.96,2.67-4.5,3.01-5.75,5.66-11.65,7.31-17.94.74-2.84,1.14-5.77,1.69-8.65.04-.2.09-.4.18-.81.48.63.92,1.09,1.22,1.63,1.13,2.02,2.25,4.06,3.32,6.11.82,1.57,1.59,3.17,2.32,4.78,1.17,2.56,3.02,4.41,5.41,5.89,5.09,3.16,9.9,6.7,14.19,10.92,3.33,3.28,6.73,6.48,10.02,9.8,2.18,2.19,3.99,4.7,5.61,7.33,1.67,2.71,3.33,5.42,5,8.12,2,3.24,3.52,6.7,4.55,10.36,1.29,4.56,2.63,9.11,3.67,13.72.62,2.73.85,5.57,1.03,8.38.2,3.18.02,6.39.22,9.58.39,6.24-.99,12.17-2.87,18.04-.27.84-.43,1.75-.84,2.52-.85,1.61-1.77,3.19-2.78,4.7-3.14,4.66-7.31,8.29-11.75,11.65-4.53,3.42-9.37,6.35-14.55,8.68-3.33,1.49-6.76,2.76-10.13,4.16-2.55,1.06-5.04,2.3-7.64,3.22-3.9,1.38-7.87,2.56-11.82,3.81-1.14.36-2.29.65-3.58,1.02.27-1.43.47-2.76.78-4.07,1.17-4.91,2.35-9.82,3.59-14.72.92-3.61,1.84-7.22,2.96-10.77,1.43-4.54,3.64-8.71,6.59-12.46.42-.53.92-.99,1.38-1.49Z"/>
    <path class="cls-10" d="m111.27,121.72c-1.41.89-2.78,1.85-4.24,2.65-3.64,2-7.37,3.82-11.51,4.6-3.24.61-6.43,1.44-9.79,1.4-3.82-.04-7.64.12-11.46.22-4.28.12-8.38-.79-12.44-2.04-3.27-1.01-6.38-2.29-9.14-4.35-.9-.67-1.32-2.62-.72-3.54.23.17.43.38.69.49,1.72.7,3.4,1.52,5.17,2.02,4.14,1.17,8.37,1.56,12.7,1.35,2.92-.14,5.86-.09,8.72-.71,2.95-.64,5.87-1.43,8.76-2.31,1.33-.41,2.58-1.14,3.8-1.82,2.25-1.25,4.56-2.43,6.66-3.92,1.71-1.21,3.17-2.79,4.7-4.25,1.49-1.43,2.99-2.85,4.36-4.39.99-1.1,1.71-2.44,2.67-3.57,2.83-3.36,4.82-7.19,6.24-11.3.64-1.84,1.01-3.75,1.28-5.7.35-2.59.34-5.17.01-7.73-.37-2.9-1.17-5.7-2.52-8.34-1.53-3.01-3.1-5.95-5.69-8.26-2.27-2.02-4.52-4.03-7.15-5.57-3.32-1.94-6.7-3.77-10.39-4.9-3.79-1.15-7.62-2.22-11.58-2.48-2.94-.19-5.93-.38-8.85-.07-3.16.34-6.3,1.15-9.38,1.99-2.07.56-4.07,1.46-6.04,2.34-1.08.48-2.04,1.25-3.07,1.86-.16.1-.43.01-.66.01.09-.27.16-.55.28-.81.54-1.09.82-2.17.59-3.45-.51-2.9-.24-5.81.11-8.73.4-3.37,1.44-6.49,3.17-9.38.52-.86,1.23-1.6,1.86-2.4.38-.07.76-.14,1.14-.22,1.17-.23,2.34-.57,3.52-.67,2.48-.2,4.85.17,7.14,1.33,2.74,1.39,5.25,3,7.07,5.53.51.71,1.08,1.35,2.05,1.41.71.06,1.42.18,2.12.15.92-.03,1.84-.19,2.76-.29.47,0,.96-.06,1.41.04,3.94.89,7.88,1.8,11.82,2.74.92.22,1.6-.11,1.87-1.01.1-.33.3-.63.46-.94,1.17-3.28,3.38-5.95,5.2-8.84.19-.3.62-.44.93-.66,1.63-.33,3.24-.72,4.88-.96,2.26-.33,4.54-.33,6.7.47,2.48.93,4.74,2.32,6.82,3.95,1.33,1.04,2.74,2.05,3.84,3.31,2.61,3,4.11,6.65,5.53,10.3.77,1.98,1.22,4.09,1.8,6.15,1.14,4.03,1.93,8.11,1.85,12.32-.04,2.4-.03,4.81-.17,7.21-.12,2.07-.23,4.18-.68,6.2-1.36,6.07-3.4,11.88-6.98,17.06-1.61,2.34-3.07,4.79-4.6,7.19-1.96,3.08-3.83,6.22-5.9,9.23-2.1,3.05-4.14,6.14-6.73,8.82-.24.25-.37.61-.56.91,0,0-.01,0-.01,0-.14.12-.28.24-.42.36Zm12.23-82.3c.17-5.67-4.42-10.1-9.77-10.27-5.87-.19-10.39,4.47-10.49,9.9-.1,5.76,4.39,10.46,10.43,10.41,5.11-.04,9.96-4.72,9.82-10.04Zm-59.01,5.9c4.25-.08,7.6-3.89,7.06-8.47-.42-3.56-3.51-6.88-8.27-6.49-3.87.32-7.16,3.79-6.72,8.21.4,4.03,3.68,7.03,7.93,6.74Z"/>
    <path class="cls-3" d="m53.06,99.99c-.6-1.01-1.65-1.19-2.66-1.42-4.21-.94-8.47-1.26-12.77-1.1-.12,0-.25-.02-.49-.04.88-.97,1.68-1.88,2.51-2.76.83-.87,1.67-1.74,2.55-2.55,1.66-1.53,2.28-3.56,2.53-5.67.32-2.69.43-5.41.62-8.05.79.27,1.65.66,2.54.86,2.62.58,5.68-.79,6.88-3.2.54-1.09.27-2.34-.09-3.5-.89-2.82-3.98-4.89-7.12-4.74-.07,0-.15-.02-.35-.05.75-1.45,1.42-2.89,2.21-4.25.6-1.04,1.36-1.98,2.01-2.99,1.41-2.19,3.43-3.61,5.76-4.65.16.06.33.18.47.15.61-.14,1.21-.3,1.81-.49,3.17-1.01,6.46-1.5,9.76-1.55,2.77-.04,5.57.24,8.33.6,4.03.53,7.83,1.91,11.45,3.73,1.01.51,1.96,1.16,2.87,1.83.68.51,1.25,1.18,1.87,1.77,2.33,2.24,4.52,4.6,6.33,7.3,1.73,2.59,3.04,5.38,4.2,8.25.38.93.7,1.89.98,2.85.45,1.51.84,3.04,1.26,4.57-.01.06-.02.13-.03.19-2.24.1-4.5.01-6.7.35-2.47.38-4.97.34-7.42.96-3.31.85-6.8.81-10.09,1.92-1.86.63-3.85.88-5.73,1.47-2.12.67-4.19,1.51-6.27,2.31-1.61.62-3.22,1.27-4.8,1.98-1.79.8-3.56,1.64-5.33,2.5-2.01.98-3.99,2.01-6,3-.34.17-.72.26-1.08.39Zm33.01-17.1c.45-.06.89-.1,1.32-.19,1.26-.26,2.58-.4,3.77-.84,2.96-1.09,4.89-3.39,6.52-5.98.76-1.22.72-1.37-.52-2.13-2.17-1.32-4.6-1.94-7.03-2.53-3.49-.85-6.87-.44-10.03,1.18-1.5.77-2.83,1.87-4.22,2.84-.66.46-1.3.96-1.94,1.46-.46.36-.47.79-.09,1.2.43.46.84.95,1.35,1.31,3.27,2.27,6.95,3.34,10.88,3.68Z"/>
    <path class="cls-9" d="m53.06,99.99c.36-.13.74-.22,1.08-.39,2-.99,3.99-2.02,6-3,1.76-.86,3.53-1.71,5.33-2.5,1.58-.7,3.18-1.35,4.8-1.98,2.08-.8,4.15-1.64,6.27-2.31,1.88-.59,3.87-.84,5.73-1.47,3.29-1.11,6.78-1.07,10.09-1.92,2.45-.63,4.96-.58,7.42-.96,2.2-.34,4.47-.25,6.7-.36.05.49.1.98.15,1.47.17,1.58.44,3.15.47,4.73.03,1.87-.11,3.75-.27,5.61-.27,3.03-1.06,5.92-2.43,8.66-.3.59-.37,1.3-.55,1.95-2.18,1.98-4.33,3.99-6.54,5.94-3.99,3.52-8.75,5.43-13.85,6.65-1.54.37-3.03.91-4.58,1.22-1.78.36-3.6.63-5.41.8-4.91.46-9.76-.1-14.52-1.27-1.87-.46-3.66-1.28-5.47-1.97-3.76-1.42-7.48-2.97-11.42-3.84.2-.2.42-.4.64-.62,1,.88,2.3,1.13,3.62,1.27,2.98.31,5.98.52,8.95.95,2.19.32,4.35.89,6.51,1.44,3.96,1.01,7.67.31,11.27-1.46,2.24-1.1,4.27-2.51,6.19-4.09.5-.41,1.04-.83.83-1.78-.31.13-.62.2-.86.37-.77.58-1.52,1.2-2.28,1.79-2.62,2.04-5.53,3.5-8.77,4.26-2.26.53-4.52.26-6.74-.29-1.08-.27-2.14-.64-3.23-.85-1.96-.37-3.94-.71-5.92-.95-2.28-.28-4.58-.39-6.85-.68-.69-.09-1.37-.46-1.98-.84-.51-.32-.75-.87-.41-1.51,1.27-.15,2.57-.2,3.81-.48,1.66-.38,3.28-.98,4.34-2.43.76-1.04,1.54-2.1,1.41-3.51.54-1.01,1.07-2.04.95-3.23-.09-.82-.31-1.62-.48-2.43Z"/>
    <path class="cls-9" d="m79.16,215.42c2.11-1.44,4.36-2.71,6.3-4.36,5.23-4.43,11.51-6.55,17.91-8.41,1.94-.56,3.91-1.01,5.87-1.5.32-.08.66-.08,1.07-.12.1.83.22,1.59.29,2.36.33,3.59.65,7.17.96,10.76.16,1.87.31,3.74.47,5.62-.18.07-.39.11-.53.22-.55.44-1.07.92-1.61,1.37-1.91,1.6-3.8,3.23-5.73,4.79-1.06.85-2.2,1.59-3.31,2.38-.1.01-.19.02-.29.03-.1,0-.19-.01-.29-.02-1.06-.09-2.12-.17-3.18-.26-1.59-.06-3.18-.13-4.77-.18-1.88-.06-3.76-.07-5.64-.15-3.75-.15-7.5-.34-11.26-.5-.89-.04-1.66-.31-2.22-1.1.43-.66.86-1.27,1.24-1.91,1.15-1.91,2.31-3.82,3.42-5.75.59-1.02,1.31-2.01,1.3-3.28Z"/>
    <path class="cls-2" d="m121.58,258.64c.2-.57.43-1.13.61-1.7.54-1.77,1.03-3.55,1.61-5.31,1.13-3.37.85-6.85.97-10.3.07-2,.37-3.98.57-5.98.12-1.22.23-2.44.35-3.65.15-1.47.31-2.95.48-4.42.19-1.73.32-3.48.62-5.19.4-2.28.93-4.53,1.43-6.79.61-2.79,1.29-5.58,1.85-8.38.65-3.24,1.34-6.48,2.59-9.54,1.12-2.72,2.14-5.51,3.85-7.96.94-1.36,1.7-2.85,2.69-4.16,1.43-1.89,2.97-3.73,5.2-4.73,1.59-.71,3.3-.95,5.05-.83.09,0,.16.28.24.42-.72-.18-1.26.21-1.64.69-1.2,1.55-2.43,3.08-3.48,4.73-3.15,4.95-4.9,10.47-6.3,16.11-1.1,4.44-1.99,8.94-3.2,13.35-1.15,4.18-1.91,8.43-2.64,12.69-.49,2.88-1.08,5.74-1.5,8.62-.39,2.6-.29,5.2.14,7.81.39,2.36.79,4.74.87,7.13.1,2.76-1.24,4.86-3.73,6.19-.1-1.55-.21-3.06-.31-4.56,0-.05.01-.12-.01-.15-.18-.25-.37-.49-.56-.73-.13.26-.36.52-.37.78-.04,1.41-.01,2.83-.01,4.24,0,1.11-.05,1.27-1.12,1.4-1.41.17-2.83.16-4.25.23Z"/>
    <path class="cls-8" d="m111.71,121.36c.18-.31.32-.66.56-.91,2.59-2.67,4.64-5.77,6.73-8.82,2.07-3.01,3.94-6.15,5.9-9.23,1.53-2.4,2.98-4.85,4.6-7.19,3.58-5.18,5.63-10.99,6.98-17.06.45-2.02.56-4.12.68-6.2.14-2.4.12-4.8.17-7.21.07-4.21-.71-8.29-1.85-12.32-.58-2.06-1.03-4.16-1.8-6.15-1.42-3.65-2.92-7.3-5.53-10.3-1.1-1.26-2.51-2.27-3.84-3.31-2.09-1.63-4.34-3.02-6.82-3.95-2.16-.8-4.45-.8-6.7-.47-1.64.24-3.26.64-4.88.96,1.76-1.19,3.74-1.9,5.82-2.11,1.88-.19,3.81-.19,5.69.01,1.34.15,2.64.74,3.94,1.19,2.38.81,4.61,1.96,6.55,3.57.91.76,1.62,1.75,2.44,2.62,3.65,3.89,5.94,8.63,8.24,13.35.21.42.39.85.64,1.25,1.52,2.47,1.71,5.32,2.32,8.05.69,3.1.85,6.26.84,9.43,0,.63.13,1.26.1,1.88-.04.85-.16,1.7-.29,2.54-.29,1.8-.56,3.61-.93,5.39-.94,4.48-2.47,8.77-4.3,12.96-.99,2.27-1.79,4.62-2.8,6.87-.42.93-1.19,1.71-1.77,2.57-1.28,1.91-2.57,3.81-3.8,5.74-2.52,3.98-5.57,7.5-8.96,10.76-2.31,2.22-5.02,3.89-7.5,5.89-.11.09-.27.13-.41.19Z"/>
    <path class="cls-2" d="m106.52,84.9c-.42-1.52-.81-3.05-1.26-4.57-.28-.96-.6-1.92-.98-2.85-1.16-2.87-2.47-5.66-4.2-8.25-1.81-2.7-4-5.06-6.33-7.3-.62-.6-1.19-1.26-1.87-1.77-.91-.68-1.86-1.33-2.87-1.83-3.62-1.82-7.42-3.2-11.45-3.73-2.76-.37-5.55-.64-8.33-.6-3.3.05-6.58.54-9.76,1.55-.6.19-1.2.35-1.81.49-.14.03-.31-.1-.47-.15,2.56-1.46,5.34-2.32,8.2-2.99,3.4-.8,6.85-1.13,10.32-1.26,3.99-.15,7.9.42,11.74,1.51,3.73,1.06,7.46,2.08,10.97,3.79,2.18,1.07,4.06,2.55,5.98,4,3.27,2.47,5.76,5.58,7.84,9.06,1.33,2.22,2,4.66,2.65,7.15.59,2.28.68,4.52.4,6.82-.15.4-.29.8-.41,1.13-2.8-.06-5.58-.12-8.36-.18Z"/>
    <path class="cls-3" d="m60.98,169.16c1.52.6,2.47,1.87,3.44,3.06,2.02,2.47,3.38,5.32,4.31,8.36.27.9.34,1.87.38,2.82.07,2,.27,4-.29,5.98-.32,1.14-.64,2.29-.85,3.46-.39,2.15-.67,4.32-1.08,6.46-.25,1.29-.63,2.56-1.01,3.82-.9,2.96-1.84,5.9-2.76,8.85-.28.89-.45,1.82-.83,2.66-.42.91-1.01,1.74-1.58,2.58-1.1,1.62-2.22,3.24-3.37,4.83-.88,1.21-2.07,2.05-3.34,2.86-1.27.81-2.6,1.38-4.02,1.67-1.55.32-3.14.43-4.72.57-.3.03-.63-.19-.95-.3,1.55-1.06,3.11-2.11,4.65-3.18,2.26-1.57,3.85-3.8,5.68-5.81,2.45-2.7,3.47-5.87,3.81-9.36.23-2.36.41-4.73.63-7.09.13-1.37.35-2.73.48-4.1.13-1.35.18-2.71.3-4.06.34-3.79.74-7.58,1.04-11.38.16-2.03.23-4.07.24-6.11,0-2.04-.11-4.08-.17-6.11,0-.16.01-.31.02-.47Z"/>
    <path class="cls-9" d="m20.9,210.72c-.07-.23-.23-.48-.19-.68.31-1.42,1.22-2.42,2.38-3.22.22-.16.44-.32.83-.61-.44-.08-.67-.12-.9-.16-.04-.53-.44-.83-1.12-.6-.81.27-1.56.72-2.33,1.09.15-1.1.88-1.81,1.69-2.43,2.46-1.88,5.35-2.86,8.23-3.82,3.87-1.29,7.81-2.3,11.83-2.96,2.13-.35,4.29-.51,6.41-.87,2.65-.45,4.96-1.69,7.05-3.34.9-.7,1.78-1.43,2.68-2.14-.34,1.52-.55,3.08-1.03,4.55-.68,2.07-1.54,4.08-2.36,6.1-.93,2.31-2.99,3.27-5.14,3.9-1.27.38-2.68.34-4.03.38-1.96.06-3.93-.04-5.89.03-1.24.05-2.48.28-3.71.43-1.34.16-2.68.38-4.03.48-2.58.19-5.15.46-7.47,1.72-1.06.57-2.28.98-2.92,2.14Z"/>
    <path class="cls-1" d="m42.24,241.48c.88.17.49.79.35,1.21-.23.7-.58,1.36-.74,2.15,1.44-.76,2.9-1.48,4.31-2.28,2.03-1.16,4.05-2.32,6.03-3.57,2.21-1.4,4.14-3.17,5.87-5.14,1.9-2.17,3.73-4.4,5.52-6.65,1.44-1.81,2.86-3.64,4.17-5.55,1.96-2.88,3.42-6.04,4.88-9.19.98-2.12,2.05-4.19,3.14-6.26,1.75-3.32,3.53-6.62,5.34-9.9,1.8-3.26,3.65-6.5,5.49-9.74.71-1.24,1.43-2.48,2.23-3.67.34-.5.86-.89,1.33-1.29.43-.37.64.04.87.31-.75,1.45-1.53,2.89-2.24,4.37-1.53,3.17-3.08,6.34-4.53,9.55-1.98,4.37-3.8,8.82-5.86,13.16-2.47,5.2-5.24,10.23-8.75,14.82-3.22,4.21-6.33,8.51-9.7,12.59-1.84,2.22-4.04,4.17-6.22,6.07-2.37,2.06-5.13,3.56-8.03,4.76-1.93.8-3.99.65-6.03.35-.51-.08-.49-.45-.34-.77.65-1.36,1.33-2.7,2.03-4.03.24-.46.58-.86.88-1.29Z"/>
    <path class="cls-9" d="m52.41,55.41c.22,0,.49.08.66-.01,1.03-.61,1.99-1.38,3.07-1.86,1.97-.88,3.97-1.78,6.04-2.34,3.08-.84,6.22-1.64,9.38-1.99,2.92-.32,5.91-.13,8.85.07,3.97.26,7.8,1.33,11.58,2.48,3.69,1.13,7.08,2.96,10.39,4.9,2.63,1.53,4.88,3.55,7.15,5.57,2.59,2.31,4.16,5.25,5.69,8.26,1.34,2.64,2.14,5.44,2.52,8.34.33,2.56.34,5.14-.01,7.73-.27,1.95-.64,3.86-1.28,5.7-1.43,4.12-3.41,7.94-6.24,11.3-.96,1.13-1.68,2.47-2.67,3.57-1.37,1.53-2.87,2.96-4.36,4.39-1.53,1.46-2.99,3.04-4.7,4.25-2.1,1.48-4.41,2.67-6.66,3.92-1.23.68-2.47,1.41-3.8,1.82-2.89.88-5.81,1.67-8.76,2.31-2.86.62-5.8.57-8.72.71-4.32.2-8.55-.19-12.7-1.35-1.77-.5-3.46-1.32-5.17-2.02-.25-.1-.46-.32-.69-.49.54-.6,1.14-.76,1.92-.42,2.72,1.2,5.57,1.98,8.48,2.45,3.48.56,6.98.89,10.52.6,3.56-.29,6.97-1.29,10.44-2.03,4.27-.92,8.24-2.51,11.91-4.83,1.42-.9,2.68-2.07,3.96-3.17,1.74-1.5,3.48-3.01,5.15-4.59,2.36-2.22,4.14-4.89,5.91-7.58,2.63-3.98,4.39-8.3,5.46-12.93.65-2.84,1.19-5.73.79-8.61-.48-3.46-1.3-6.92-3.2-9.93-1.37-2.18-2.79-4.4-4.56-6.24-3.79-3.94-8.09-7.28-13.38-8.97-4.04-1.29-8.12-2.5-12.25-3.41-3.58-.79-7.26-.63-10.93-.3-3.51.32-6.95.94-10.32,1.95-2.79.83-5.4,2.07-7.78,3.73-1.14.8-2.11,1.86-3.28,2.9.56-1.37,1.07-2.63,1.58-3.9Z"/>
    <path class="cls-1" d="m20.9,210.72c.64-1.16,1.86-1.57,2.92-2.14,2.32-1.26,4.88-1.53,7.47-1.72,1.35-.1,2.69-.32,4.03-.48,1.24-.15,2.47-.38,3.71-.43,1.96-.07,3.93.02,5.89-.03,1.35-.04,2.76,0,4.03-.38,2.15-.64,4.21-1.6,5.14-3.9.82-2.02,1.68-4.03,2.36-6.1.48-1.47.7-3.03,1.03-4.55.45-.42.91-.84,1.53-1.42-.48,6.09-.95,12.04-1.41,17.96-2.49.37-4.86.69-7.22,1.08-2.18.36-4.39.66-6.51,1.24-2,.54-3.9,1.44-5.86,2.12-3.33,1.17-6.74,1.99-10.29,2-.99,0-1.12-.1-1.16-1.1-.05-1.25.45-2.34,1.1-3.37.13-.21.26-.43.39-.64-.05-.07-.11-.14-.16-.21-.37.22-.81.38-1.1.68-1.12,1.19-1.53,2.62-1.26,4.34-1.92-.46-3.56-1.24-4.61-2.95Z"/>
    <path class="cls-1" d="m105.01,201c-.94.28-1.82.55-2.7.79-4.64,1.29-9.14,2.93-13.27,5.45-.13.08-.29.2-.42.18-2.54-.26-5.07-.54-7.61-.82-.02,0-.04-.03-.12-.1,2-4.68,4-9.39,6.04-14.16,6.59,1.52,12.69,4.12,18.09,8.66Z"/>
    <path class="cls-1" d="m100.27,228.55c.1,0,.19.01.29.02-.07.1-.11.24-.21.29-1.36.74-2.73,1.46-4.07,2.23-.24.13-.38.44-.57.66-.05,0-.1,0-.16,0-.35.01-.7.03-1.05.04-4.62.03-9.24.03-13.86.09-2.19.03-4.38.15-6.57.26-3.3.17-6.46,1.11-9.63,1.96-.29.08-.59.12-1.1.22.19-.37.26-.57.38-.73,1.9-2.65,3.78-5.32,5.72-7.94.77-1.04,1.74-1.94,2.47-3.01,1.14-1.66,2.15-3.4,3.21-5.11.25-.41.55-.64,1.06-.8,1.03-.33,2-.86,2.99-1.31,0,1.27-.71,2.25-1.3,3.28-1.11,1.93-2.27,3.84-3.42,5.75-.39.64-.82,1.26-1.24,1.91.55.79,1.32,1.06,2.22,1.1,3.75.17,7.5.35,11.26.5,1.88.08,3.76.09,5.64.15,1.59.05,3.18.12,4.77.18.08.09.16.25.24.25.98.02,1.96,0,2.93,0Z"/>
    <path class="cls-1" d="m91.47,182.36c.2.66.39,1.32.6,1.97.41,1.25.83,2.5,1.27,3.75.04.11.22.21.35.24,2.87.51,5.51,1.63,8.06,3.03,1.04.57,2.13,1.05,3.32,1.63.18-1.02.36-1.93.51-2.84.39-2.49.74-4.99,1.15-7.48.06-.36.35-.67.54-1.01.57,2.56,1.22,5.11,1.68,7.7.4,2.25.61,4.54.88,6.82.15,1.24.26,2.48.39,3.68-1.3.25-2.52.5-3.75.71-.19.03-.46-.07-.6-.21-3.89-3.55-8.47-5.88-13.4-7.57-1.54-.53-3.12-.98-4.74-1.49.66-1.41,1.34-2.86,2.01-4.32.48-1.04.96-2.09,1.4-3.15.18-.45.24-.95.35-1.43Z"/>
    <path class="cls-1" d="m106.52,84.9c2.78.06,5.56.12,8.36.18.12-.32.27-.73.41-1.13-.54,2.5-.99,5.03-1.64,7.5-.97,3.67-2.86,6.93-4.98,10.04-1.23,1.81-2.63,3.5-3.97,5.23-.23.3-.56.53-.84.79.18-.65.25-1.36.55-1.95,1.37-2.73,2.16-5.63,2.43-8.66.16-1.86.3-3.74.27-5.61-.02-1.58-.3-3.16-.47-4.73-.05-.49-.1-.98-.15-1.47.01-.06.02-.13.03-.19Z"/>
    <path class="cls-9" d="m28.45,238.99c-.35.54-.7,1.09-1.17,1.82-.97-.71-1.94-1.41-2.89-2.11.62-1.08,1.53-1.82,2.63-2.38.8-.41.81-1.1.1-1.6-.14-.11-.3-.34-.41-.32-1.02.22-2.03.48-3.05.73.26-1.68,1.24-3.08,2.67-4.14.85-.63,1.78-1.18,2.76-1.58,2.87-1.17,5.77-2.28,8.69-3.35,1.16-.43,2.39-.69,3.58-1.03-.1.12-.18.27-.31.34-1.34.8-2.76,1.49-4.03,2.39-1.69,1.2-3.38,2.44-4.88,3.86-1.66,1.57-2.67,3.64-3.41,5.8-.17.5-.19,1.05-.28,1.58Z"/>
    <path class="cls-3" d="m100.84,228.54c1.11-.79,2.25-1.53,3.31-2.38,1.94-1.56,3.83-3.19,5.73-4.79.54-.45,1.06-.93,1.61-1.37.14-.12.35-.15.53-.22.15,1.02.31,2.05.44,3.07.27,2.16.66,4.32.48,6.52-.03.31.13.74-.44.71.55-.69.29-1.49.24-2.24-.01-.19-.38-.46-.61-.49-.46-.07-1-.15-1.39.04-1.11.54-2.28.67-3.48.75-2.14.15-4.29.27-6.44.4Z"/>
    <path class="cls-2" d="m100.84,228.54c2.15-.13,4.29-.26,6.44-.4,1.19-.08,2.36-.21,3.48-.75.38-.19.93-.11,1.39-.04.23.03.59.31.61.49.05.75.31,1.55-.24,2.24-1.91.39-3.8.9-5.73,1.14-2.4.29-4.83.37-7.25.49-1.27.07-2.55.03-3.82.04.19-.22.33-.53.57-.66,1.35-.76,2.72-1.48,4.07-2.23.09-.05.14-.19.21-.29.1-.01.19-.02.29-.03Z"/>
    <path class="cls-5" d="m79.33,38.02c-.97-.06-1.54-.7-2.05-1.41-1.82-2.53-4.33-4.15-7.07-5.53-2.29-1.16-4.66-1.53-7.14-1.33-1.18.1-2.35.44-3.52.67-.38.07-.76.14-1.14.22.88-1.09,2.14-1.58,3.39-1.98,3.94-1.28,7.79-.92,11.43,1.03,2.81,1.51,4.63,3.91,5.64,6.93.16.47.3.94.46,1.4Z"/>
    <path class="cls-1" d="m28.45,238.99c.09-.53.11-1.08.28-1.58.74-2.16,1.74-4.23,3.41-5.8,1.5-1.42,3.19-2.66,4.88-3.86,1.27-.9,2.68-1.59,4.03-2.39.13-.07.21-.23.31-.34,1.44-.33,2.87-.67,4.31-.99.22-.05.46,0,.69,0h-.01c-2.04,1.28-4.02,2.71-6.15,3.82-2.68,1.39-5.01,3.11-7.08,5.32-1.34,1.44-2.37,2.94-2.85,4.75-1-.29-1.23.71-1.81,1.07Z"/>
    <path class="cls-2" d="m59.43,160.68c.23,5.16.46,10.32.69,15.49-.07.01-.15.03-.22.04-.92-1.23-1.61-2.64-1.74-4.14-.19-2.28-.14-4.58-.08-6.88.04-1.59.53-3.1,1.35-4.51Z"/>
    <path class="cls-1" d="m52.59,105.64c.13,1.41-.65,2.48-1.41,3.51-1.07,1.45-2.68,2.05-4.34,2.43-1.24.28-2.54.33-3.81.48-.02-1.27-.02-1.25,1.17-1.67,2.5-.89,4.92-1.96,7.06-3.57.47-.36.89-.79,1.33-1.19Z"/>
    <path class="cls-5" d="m99.76,38.71c-.16.31-.36.61-.46.94-.27.9-.95,1.23-1.87,1.01-3.93-.94-7.87-1.85-11.82-2.74-.45-.1-.94-.03-1.41-.04.2-.05.4-.12.6-.13,3.55-.19,7.1-.03,10.63.34,1.45.15,2.88.41,4.32.62Z"/>
    <path class="cls-4" d="m39.45,100.23c1.37-1.3,9.3-.74,10.86.74-.82,1.26-9.73.68-10.86-.74Z"/>
    <path class="cls-9" d="m41.83,112.03c-.02.31-.04.62-.06.93-.1,1.21-1.05,1.64-2.08,1-2.51-1.53-4.36-3.58-5.23-6.43-.04-.12-.04-.25-.06-.38.11.06.27.09.33.19,1.75,2.51,4.21,3.92,7.1,4.68Z"/>
    <path class="cls-1" d="m35.77,238.17c-.05.36.02.85-.19,1.07-1.47,1.6-1.87,3.49-1.7,5.58-.16-.13-.32-.26-.48-.39-1.47-1.24-1.54-1.69-.62-3.42.68-1.28,1.68-2.22,2.98-2.84Z"/>
    <path class="cls-1" d="m41.83,112.03c-2.89-.76-5.35-2.18-7.1-4.68-.07-.09-.22-.12-.33-.19,0-.22.01-.45.02-.67.19.09.43.14.56.28,1.37,1.43,3.03,2.44,4.76,3.36.34.18.74.22,1.11.35,1.07.36,1.07.37.98,1.55Z"/>
    <path class="cls-2" d="m117.51,252.03c.31-.14.63-.27.94-.41.11.35.31.71.3,1.06-.02.8-.2,1.59-.22,2.38-.03.92.03,1.85.05,2.78-1.36-.44-1.55-.63-1.5-2.04.03-.85.21-1.7.31-2.55.05-.41.08-.82.12-1.23Z"/>
    <path class="cls-1" d="m27.11,234.72c.71.5.7,1.19-.1,1.6-1.1.57-2.01,1.3-2.63,2.38-.04-.06-.09-.13-.13-.19-.94-1.66-1.01-1.56.78-2.74.64-.42,1.38-.71,2.07-1.05Z"/>
    <path class="cls-1" d="m19.57,206.54c.77-.37,1.52-.82,2.33-1.09.68-.23,1.08.07,1.12.6-1.45.45-2.45,1.42-3.34,2.76-.07-.69-.14-1.38-.21-2.06.04-.07.08-.13.13-.2h-.03Z"/>
    <path class="cls-4" d="m49.47,71.57c.02.74-.52,1.36-1.19,1.39-.61.02-1.12-.48-1.16-1.12-.04-.74.55-1.41,1.24-1.43.6-.01,1.09.5,1.11,1.16Z"/>
    <path class="cls-4" d="m45.51,73.24c.35,1.54.68,2.96,1.01,4.39-.34-.2-.72-.44-1.19-.72.06-1.14.12-2.36.19-3.67Z"/>
    <path class="cls-1" d="m28.43,241.09c.56-.86.97-1.5,1.51-2.33v2.22c-.42.03-.85.07-1.51.12Z"/>
    <path class="cls-2" d="m94.5,231.79c.35-.01.7-.03,1.05-.04-.35.01-.7.03-1.05.04Z"/>
    <path class="cls-5" d="m111.27,121.72c.14-.12.28-.24.42-.36-.14.12-.28.24-.42.36Z"/>
    <path class="cls-9" d="m19.6,206.54c-.04.07-.08.13-.13.2.04-.07.08-.13.13-.2Z"/>
    <path class="cls-1" d="m46.36,224.03s0-.07,0-.11c0,.03-.01.07-.02.1,0,0,.01.01.01.01Z"/>
    <path class="cls-1" d="m67.43,146.9c.04-.12.06-.26.13-.36.12-.17.27-.44.42-.46.17-.01.45.18.52.35.49,1.15.97,2.3,1.38,3.48,1.19,3.38,2.87,6.49,5.06,9.3,2,2.57,4.27,4.9,6.81,6.97,2.35,1.92,4.66,3.9,6.95,5.9.62.54,1.11,1.24,1.62,1.9.42.54.2.93-.5.99-1.42-.83-2.83-1.66-4.25-2.48-1.69-.98-3.48-1.83-5.07-2.95-3.99-2.81-6.94-6.55-9.22-10.83-1.98-3.7-3.4-7.59-3.84-11.8Z"/>
    <path class="cls-6" d="m67.43,146.9c.44,4.21,1.86,8.1,3.84,11.8,2.29,4.27,5.24,8.02,9.22,10.83,1.59,1.12,3.38,1.97,5.07,2.95,1.42.82,2.84,1.65,4.25,2.48.07.13.13.26.28.54-.48-.1-.84-.12-1.15-.26-4.76-2.01-9.33-4.32-12.97-8.13-4.41-4.63-7.35-10.07-8.84-16.28-.33-1.39-.29-2.88-.37-4.33-.02-.31.15-.62.23-.94.07,0,.15,0,.22,0l.2,1.31Z"/>
    <path class="cls-4" d="m123.51,39.42c.13,5.31-4.72,10-9.82,10.04-6.04.05-10.53-4.65-10.43-10.41.1-5.43,4.62-10.09,10.49-9.9,5.34.17,9.93,4.61,9.77,10.27Zm-18.67-2.59c-1.31,3.17.42,7.34,3.61,8.95,3.67,1.85,7.96.61,10.05-2.89,1.97-3.3.98-7.72-2.2-9.99-3.08-2.2-7.41-1.41-9.02.4,1.95-.29,3.62.72,3.96,2.42.36,1.75-.69,3.49-2.35,3.88-1.87.44-3.46-.62-4.05-2.76Z"/>
    <path class="cls-4" d="m64.5,45.32c-4.24.29-7.52-2.72-7.93-6.74-.44-4.42,2.85-7.89,6.72-8.21,4.76-.39,7.85,2.92,8.27,6.49.54,4.58-2.81,8.39-7.06,8.47Zm-5.17-10.01c-1.27,2.43-.35,5.63,1.97,7.25,2.46,1.71,5.85,1.26,7.86-1.06,1.84-2.12,1.82-5.54-.04-7.63-1.74-1.96-4.9-2.71-6.54-1.55,2.03.32,3.33,1.7,3.21,3.41-.12,1.73-1.55,3.1-3.24,3.1-1.81,0-3.07-1.33-3.24-3.52Z"/>
    <path class="cls-6" d="m86.07,82.89c-3.93-.34-7.61-1.41-10.88-3.68-.51-.35-.92-.85-1.35-1.31-.38-.41-.37-.84.09-1.2.64-.5,1.27-1,1.94-1.46,1.39-.97,2.72-2.07,4.22-2.84,3.17-1.63,6.54-2.03,10.03-1.18,2.43.59,4.86,1.21,7.03,2.53,1.24.75,1.29.91.52,2.13-1.62,2.59-3.56,4.88-6.52,5.98-1.2.44-2.51.58-3.77.84-.43.09-.87.13-1.32.19Zm-3.74-7.4c.02-1.01-.72-1.88-1.58-1.88-.74,0-1.54.95-1.53,1.79.02.89.82,1.74,1.67,1.77.83.03,1.43-.67,1.44-1.69Zm-4.09,4.38c-.13-1.67-.26-3.17-.37-4.64-.95.62-2.02,1.32-3.28,2.15,1.29.88,2.47,1.68,3.66,2.49Z"/>
    <path class="cls-3" d="m100.27,228.55c-.98,0-1.96,0-2.93,0-.08,0-.16-.16-.24-.25,1.06.09,2.12.17,3.18.26Z"/>
    <path class="cls-6" d="m104.84,36.83c.59,2.15,2.18,3.2,4.05,2.76,1.65-.39,2.7-2.13,2.35-3.88-.35-1.7-2.01-2.71-3.96-2.42,1.61-1.8,5.94-2.59,9.02-.4,3.18,2.27,4.17,6.69,2.2,9.99-2.08,3.5-6.38,4.73-10.05,2.89-3.19-1.61-4.92-5.78-3.61-8.95Z"/>
    <path class="cls-6" d="m59.32,35.32c.17,2.18,1.43,3.52,3.24,3.52,1.69,0,3.12-1.37,3.24-3.1.12-1.71-1.19-3.1-3.21-3.41,1.64-1.16,4.8-.41,6.54,1.55,1.86,2.1,1.88,5.52.04,7.63-2.02,2.32-5.4,2.78-7.86,1.06-2.32-1.62-3.24-4.82-1.97-7.25Z"/>
    <path class="cls-4" d="m82.33,75.48c-.02,1.02-.62,1.72-1.44,1.69-.85-.03-1.65-.89-1.67-1.77-.01-.85.79-1.79,1.53-1.79.86,0,1.6.87,1.58,1.88Z"/>
    <path class="cls-4" d="m78.24,79.86c-1.19-.81-2.37-1.61-3.66-2.49,1.27-.83,2.34-1.53,3.28-2.15.12,1.47.24,2.97.37,4.64Z"/>
  </g>
  <g>
    <path class="cls-10" d="m38.83,42.93S59.91,1.59,76.09.09c16.18-1.5,80.03,15.61,83.15,21.56,3.13,5.95-6.36,42.71-6.36,42.71l-114.06-21.43Z"/>
    <g>
      <path class="cls-7" d="m157.73,42.72c-50.52-4.95-90.96-17.68-105-22.53-.43.6-.86,1.21-1.28,1.81,13.75,4.78,54.65,17.76,105.88,22.79.14-.69.27-1.38.4-2.07Z"/>
      <path class="cls-7" d="m49.57,24.76c14.41,4.98,55.76,17.96,107.19,22.79.14-.68.28-1.37.42-2.07-50.84-4.76-91.76-17.53-106.38-22.56-.42.61-.83,1.22-1.23,1.83Z"/>
      <path class="cls-7" d="m47.96,27.23c12.23,4.33,54.64,18.22,108.16,23.37.15-.68.29-1.37.44-2.06-52.86-5.06-94.86-18.72-107.41-23.14-.41.62-.81,1.23-1.19,1.84Z"/>
    </g>
    <path class="cls-8" d="m.92,27.72c-5.21.24,11.61,18.82,51.22,29.2,39.61,10.38,133.03,28.28,144.56,7.69C120.16,58.01,9.48,27.32.92,27.72Z"/>
  </g>
</svg>